<svg width="143" height="143" viewBox="0 0 143 143" fill="none" xmlns="http://www.w3.org/2000/svg">
<path d="M71.5 0C110.997 0 143 32.0031 143 71.5V143H71.5C32.0031 143 0 110.997 0 71.5C0 32.0031 32.0031 0 71.5 0Z" fill="white"/>
<path d="M38.54 72.2663C36.1843 72.2663 34.0155 71.7216 32.0305 70.6258C30.052 69.5332 28.4739 67.9813 27.2927 65.9667C26.1181 63.9456 25.5341 61.5964 25.5341 58.9191C25.5341 56.2155 26.1181 53.863 27.2927 51.8583C28.4739 49.8471 30.052 48.3017 32.0305 47.2255C34.0155 46.1428 36.1843 45.5981 38.54 45.5981C40.8827 45.5981 43.0481 46.1428 45.0364 47.2255C47.0215 48.3017 48.5996 49.8471 49.7742 51.8583C50.9456 53.863 51.5329 56.2155 51.5329 58.9191C51.5329 61.5964 50.9456 63.9456 49.7742 65.9667C48.5996 67.9813 47.0215 69.5332 45.0364 70.6258C43.0481 71.7216 40.8827 72.2663 38.54 72.2663ZM38.54 68.7097C40.1576 68.7097 41.6373 68.3291 42.976 67.5679C44.3146 66.8001 45.3777 65.6846 46.1651 64.2212C46.9526 62.7513 47.3463 60.9927 47.3463 58.9453C47.3463 56.8816 46.9526 55.1197 46.1651 53.6563C45.3777 52.1864 44.3179 51.0774 42.9891 50.3228C41.657 49.5715 40.174 49.1941 38.54 49.1941C36.893 49.1941 35.4034 49.5715 34.0647 50.3228C32.7261 51.0774 31.6663 52.1864 30.8887 53.6563C30.1176 55.1197 29.7338 56.8816 29.7338 58.9453C29.7338 60.9927 30.1308 62.7513 30.9281 64.2212C31.7221 65.6846 32.795 66.8001 34.1435 67.5679C35.4985 68.3291 36.9651 68.7097 38.54 68.7097Z" fill="black"/>
<path d="M61.9228 60.3238L59.8098 62.9355V71.9124H55.925V46.0186H59.8098V57.5809L68.6817 46.0186H73.4063L64.4951 57.3971L74.6662 71.9124H69.8497L61.9228 60.3238Z" fill="black"/>
<path d="M85.7913 72.2667C82.5529 72.2667 80.2037 71.2923 78.7437 69.34C77.2902 67.3911 76.5651 64.5596 76.5651 60.8488V46.0186H80.5154V60.9275C80.5154 63.677 80.9255 65.6456 81.7491 66.8333C82.5693 68.0145 83.9178 68.6051 85.7913 68.6051C87.6713 68.6051 89.0133 68.0244 89.8204 66.8596C90.6341 65.6981 91.0409 63.7197 91.0409 60.9275V46.0186H95.0306V60.8488C95.0306 64.5432 94.2596 67.3682 92.7208 69.3269C91.1787 71.289 88.8689 72.2667 85.7913 72.2667Z" fill="black"/>
<path d="M113.122 71.9124L107.912 62.1218C106.836 62.1677 105.871 62.1874 105.025 62.1874H104.04V71.9124H100.195V46.0186H106.088C109.06 46.0186 111.511 46.6354 113.437 47.8691C115.37 49.1027 116.338 51.1074 116.338 53.8799C116.338 55.6123 115.931 57.1084 115.117 58.3683C114.303 59.6282 113.099 60.5961 111.508 61.2687L117.676 71.9124H113.122ZM106.534 58.9851C108.844 58.9851 110.422 58.4864 111.272 57.489C112.128 56.4916 112.558 55.2973 112.558 53.9061C112.558 50.8351 110.504 49.2996 106.403 49.2996H104.04V58.9851H106.534Z" fill="black"/>
<path d="M29.4582 90.6092L21.4525 78.2856H25.6522L31.2168 87.4069L36.7814 78.2856H40.9549L32.9755 90.6748V101.384H29.4582V90.6092Z" fill="black"/>
<path d="M51.3575 78.2593L62.4736 101.384H58.4182L56.4496 96.8561H45.8585L43.8767 101.384H39.9526L51.0031 78.2593H51.3575ZM49.7826 88.0892L47.2628 93.6801H55.0585L52.578 88.1286L51.2262 84.9526H51.1606L49.7826 88.0892Z" fill="black"/>
<path d="M73.7781 81.3042H63.6988V78.2856H79.3034L67.8985 98.2999H78.844V101.384H62.2158L73.7781 81.3042Z" fill="black"/>
<path d="M91.0899 78.2593L102.206 101.384H98.1506L96.182 96.8561H85.5909L83.6092 101.384H79.6851L90.7355 78.2593H91.0899ZM89.515 88.0892L86.9952 93.6801H94.7909L92.3104 88.1286L90.9586 84.9526H90.893L89.515 88.0892Z" fill="black"/>
<path d="M115.676 101.384L111.03 92.6434C110.066 92.6893 109.209 92.709 108.458 92.709H107.579V101.384H104.153V78.2856H109.403C112.061 78.2856 114.249 78.8369 115.965 79.9393C117.678 81.0417 118.537 82.8266 118.537 85.2939C118.537 86.8425 118.173 88.1812 117.448 89.3099C116.729 90.432 115.657 91.2916 114.233 91.8953L119.732 101.384H115.676ZM109.81 89.848C111.857 89.848 113.261 89.4083 114.023 88.5224C114.79 87.63 115.178 86.5669 115.178 85.3333C115.178 82.5871 113.343 81.2123 109.679 81.2123H107.579V89.848H109.81Z" fill="black"/>
</svg>
